HIERARCHY
ROOT newVegas:Hips
{
	OFFSET 0.000000 96.479958 0.000000
	CHANNELS 6 Xposition Yposition Zposition Xrotation Yrotation Zrotation
	JOINT newVegas:Pelvis
	{
		OFFSET 0.000000 0.000000 0.000000
		CHANNELS 3 Xrotation Yrotation Zrotation
		JOINT newVegas:LeftUpLeg
		{
			OFFSET 18.735201 -5.666702 -4.541200
			CHANNELS 3 Xrotation Yrotation Zrotation
			JOINT newVegas:LeftLeg
			{
				OFFSET -0.021200 -31.938179 0.493100
				CHANNELS 3 Xrotation Yrotation Zrotation
				JOINT newVegas:LeftFoot
				{
					OFFSET 0.021200 -31.938179 -4.336299
					CHANNELS 3 Xrotation Yrotation Zrotation
					JOINT newVegas:LeftToeBase
					{
						OFFSET 0.943001 -26.722000 15.023500
						CHANNELS 3 Xrotation Yrotation Zrotation
						End Site
						{
							OFFSET 0.000000 30.670183 0.000000
						}
					}
				}
				JOINT newVegas:Left_PantLeg
				{
					OFFSET 0.663870 -9.044666 -1.108900
					CHANNELS 3 Xrotation Yrotation Zrotation
					End Site
					{
						OFFSET 1.415995 20.635357 0.000000
					}
				}
			}
		}
		JOINT newVegas:RightUpLeg
		{
			OFFSET -18.735201 -5.666702 -4.541200
			CHANNELS 3 Xrotation Yrotation Zrotation
			JOINT newVegas:RightLeg
			{
				OFFSET 0.018946 -31.938133 0.493100
				CHANNELS 3 Xrotation Yrotation Zrotation
				JOINT newVegas:RightFoot
				{
					OFFSET -0.018946 -31.938126 -4.336299
					CHANNELS 3 Xrotation Yrotation Zrotation
					JOINT newVegas:RightToeBase
					{
						OFFSET -0.943001 -26.722004 15.023500
						CHANNELS 3 Xrotation Yrotation Zrotation
						End Site
						{
							OFFSET 0.000000 30.670187 0.000000
						}
					}
				}
				JOINT newVegas:Right_PantLeg
				{
					OFFSET -0.661674 -9.044716 -1.108900
					CHANNELS 3 Xrotation Yrotation Zrotation
					End Site
					{
						OFFSET -1.415958 20.635269 0.000000
					}
				}
			}
		}
	}
	JOINT newVegas:Spine
	{
		OFFSET 0.000000 10.199997 -0.299500
		CHANNELS 3 Xrotation Yrotation Zrotation
		JOINT newVegas:Spine1
		{
			OFFSET 0.000000 11.900002 -1.516600
			CHANNELS 3 Xrotation Yrotation Zrotation
			JOINT newVegas:Spine2
			{
				OFFSET 0.000000 13.600006 -2.842500
				CHANNELS 3 Xrotation Yrotation Zrotation
				JOINT newVegas:Neck
				{
					OFFSET 0.000000 9.624100 -2.890100
					CHANNELS 3 Xrotation Yrotation Zrotation
					JOINT newVegas:Head
					{
						OFFSET 0.000000 14.068802 -1.351900
						CHANNELS 3 Xrotation Yrotation Zrotation
						JOINT newVegas:Hair_Back
						{
							OFFSET 0.000000 3.231903 -17.524799
							CHANNELS 3 Xrotation Yrotation Zrotation
							End Site
							{
								OFFSET 0.000000 19.849884 0.000000
							}
						}
						JOINT newVegas:Hair_Front
						{
							OFFSET 0.000000 31.260406 4.573800
							CHANNELS 3 Xrotation Yrotation Zrotation
							JOINT newVegas:Hair_Front1
							{
								OFFSET 0.000000 2.284103 11.993300
								CHANNELS 3 Xrotation Yrotation Zrotation
								JOINT newVegas:Hair_Front2
								{
									OFFSET 0.000000 2.284103 11.993300
									CHANNELS 3 Xrotation Yrotation Zrotation
									End Site
									{
										OFFSET 0.000000 12.208862 0.000000
									}
								}
							}
						}
						JOINT newVegas:Jowel
						{
							OFFSET 0.000000 -7.458206 6.864100
							CHANNELS 3 Xrotation Yrotation Zrotation
							End Site
							{
								OFFSET 0.000000 19.849884 0.000000
							}
						}
					}
				}
				JOINT newVegas:LeftShoulder
				{
					OFFSET 15.263000 10.923401 -0.547700
					CHANNELS 3 Xrotation Yrotation Zrotation
					JOINT newVegas:LeftArm
					{
						OFFSET 25.438599 -2.830597 -13.032500
						CHANNELS 3 Xrotation Yrotation Zrotation
						JOINT newVegas:LeftForeArm
						{
							OFFSET 29.960503 0.000000 0.000000
							CHANNELS 3 Xrotation Yrotation Zrotation
							JOINT newVegas:LeftHand
							{
								OFFSET 27.849251 0.000000 0.000000
								CHANNELS 3 Xrotation Yrotation Zrotation
								JOINT newVegas:LeftHandThumb1
								{
									OFFSET 4.487587 -3.305161 6.305391
									CHANNELS 3 Xrotation Yrotation Zrotation
									JOINT newVegas:LeftHandThumb2
									{
										OFFSET 5.480453 -3.164139 3.164143
										CHANNELS 3 Xrotation Yrotation Zrotation
										JOINT newVegas:LeftHandThumb3
										{
											OFFSET 5.159721 -2.978973 2.978967
											CHANNELS 3 Xrotation Yrotation Zrotation
											End Site
											{
												OFFSET 2.494507 5.926697 1.738678
											}
										}
									}
								}
								JOINT newVegas:LeftHandIndex1
								{
									OFFSET 18.578728 -0.527832 5.208049
									CHANNELS 3 Xrotation Yrotation Zrotation
									JOINT newVegas:LeftHandIndex2
									{
										OFFSET 3.192009 0.000000 0.000000
										CHANNELS 3 Xrotation Yrotation Zrotation
										JOINT newVegas:LeftHandIndex3
										{
											OFFSET 3.835129 0.000000 0.000000
											CHANNELS 3 Xrotation Yrotation Zrotation
											End Site
											{
												OFFSET -0.034599 3.816971 0.371180
											}
										}
									}
								}
								JOINT newVegas:LeftHandMiddle1
								{
									OFFSET 18.476105 0.000000 0.000000
									CHANNELS 3 Xrotation Yrotation Zrotation
									JOINT newVegas:LeftHandMiddle2
									{
										OFFSET 3.324875 0.000000 0.000000
										CHANNELS 3 Xrotation Yrotation Zrotation
										JOINT newVegas:LeftHandMiddle3
										{
											OFFSET 4.596550 0.000000 0.000000
											CHANNELS 3 Xrotation Yrotation Zrotation
											End Site
											{
												OFFSET 0.057701 4.578827 0.399218
											}
										}
									}
								}
								JOINT newVegas:LeftHandRing1
								{
									OFFSET 17.732719 0.121887 -4.201567
									CHANNELS 3 Xrotation Yrotation Zrotation
									JOINT newVegas:LeftHandRing2
									{
										OFFSET 2.733170 0.000000 0.000000
										CHANNELS 3 Xrotation Yrotation Zrotation
										JOINT newVegas:LeftHandRing3
										{
											OFFSET 3.178268 0.000000 0.000000
											CHANNELS 3 Xrotation Yrotation Zrotation
											End Site
											{
												OFFSET 0.119102 3.170624 0.185394
											}
										}
									}
								}
								JOINT newVegas:LeftHandPinky1
								{
									OFFSET 15.989624 -0.606689 -7.535461
									CHANNELS 3 Xrotation Yrotation Zrotation
									JOINT newVegas:LeftHandPinky2
									{
										OFFSET 2.538986 0.000000 0.000000
										CHANNELS 3 Xrotation Yrotation Zrotation
										JOINT newVegas:LeftHandPinky3
										{
											OFFSET 2.593102 0.000000 0.000000
											CHANNELS 3 Xrotation Yrotation Zrotation
											End Site
											{
												OFFSET -0.150902 2.584198 0.152708
											}
										}
									}
								}
							}
							JOINT newVegas:Left_Sleeve
							{
								OFFSET 0.267448 -0.649796 0.577675
								CHANNELS 3 Xrotation Yrotation Zrotation
								End Site
								{
									OFFSET 0.000000 15.991241 0.000000
								}
							}
							JOINT newVegas:Left_CapeC
							{
								OFFSET 15.715958 -8.608795 -6.935905
								CHANNELS 3 Xrotation Yrotation Zrotation
								JOINT newVegas:Left_CapeC1
								{
									OFFSET 0.000000 -8.688499 0.000000
									CHANNELS 3 Xrotation Yrotation Zrotation
									End Site
									{
										OFFSET 0.000000 8.688499 0.000000
									}
								}
							}
						}
						JOINT newVegas:Left_CapeB
						{
							OFFSET 26.118385 -8.608795 -7.079235
							CHANNELS 3 Xrotation Yrotation Zrotation
							JOINT newVegas:Left_CapeB1
							{
								OFFSET 0.000000 -8.688499 0.000000
								CHANNELS 3 Xrotation Yrotation Zrotation
								End Site
								{
									OFFSET 0.000000 8.688499 0.000000
								}
							}
						}
						JOINT newVegas:Left_CapeA
						{
							OFFSET 5.115639 -8.608795 -10.395809
							CHANNELS 3 Xrotation Yrotation Zrotation
							JOINT newVegas:Left_CapeA1
							{
								OFFSET 0.000000 -8.688499 0.000000
								CHANNELS 3 Xrotation Yrotation Zrotation
								End Site
								{
									OFFSET 0.000000 8.688499 0.000000
								}
							}
						}
					}
				}
				JOINT newVegas:RightShoulder
				{
					OFFSET -15.263000 10.923401 -0.547700
					CHANNELS 3 Xrotation Yrotation Zrotation
					JOINT newVegas:RightArm
					{
						OFFSET -25.438599 -2.830597 -13.032500
						CHANNELS 3 Xrotation Yrotation Zrotation
						JOINT newVegas:RightForeArm
						{
							OFFSET -29.960503 0.000000 0.000000
							CHANNELS 3 Xrotation Yrotation Zrotation
							JOINT newVegas:RightHand
							{
								OFFSET -27.849251 0.000000 0.000000
								CHANNELS 3 Xrotation Yrotation Zrotation
								JOINT newVegas:RightHandThumb1
								{
									OFFSET -4.487587 -3.305161 6.305391
									CHANNELS 3 Xrotation Yrotation Zrotation
									JOINT newVegas:RightHandThumb2
									{
										OFFSET -5.480453 -3.164139 3.164143
										CHANNELS 3 Xrotation Yrotation Zrotation
										JOINT newVegas:RightHandThumb3
										{
											OFFSET -5.159721 -2.978973 2.978967
											CHANNELS 3 Xrotation Yrotation Zrotation
											End Site
											{
												OFFSET -2.494507 5.926697 1.738678
											}
										}
									}
								}
								JOINT newVegas:RightHandIndex1
								{
									OFFSET -18.578728 -0.527832 5.208049
									CHANNELS 3 Xrotation Yrotation Zrotation
									JOINT newVegas:RightHandIndex2
									{
										OFFSET -3.192009 0.000000 0.000000
										CHANNELS 3 Xrotation Yrotation Zrotation
										JOINT newVegas:RightHandIndex3
										{
											OFFSET -3.835129 0.000000 0.000000
											CHANNELS 3 Xrotation Yrotation Zrotation
											End Site
											{
												OFFSET 0.034599 3.816971 0.371180
											}
										}
									}
								}
								JOINT newVegas:RightHandMiddle1
								{
									OFFSET -18.476105 0.000000 0.000000
									CHANNELS 3 Xrotation Yrotation Zrotation
									JOINT newVegas:RightHandMiddle2
									{
										OFFSET -3.324875 0.000000 0.000000
										CHANNELS 3 Xrotation Yrotation Zrotation
										JOINT newVegas:RightHandMiddle3
										{
											OFFSET -4.596550 0.000000 0.000000
											CHANNELS 3 Xrotation Yrotation Zrotation
											End Site
											{
												OFFSET -0.057701 4.578827 0.399218
											}
										}
									}
								}
								JOINT newVegas:RightHandRing1
								{
									OFFSET -17.732719 0.121887 -4.201567
									CHANNELS 3 Xrotation Yrotation Zrotation
									JOINT newVegas:RightHandRing2
									{
										OFFSET -2.733170 0.000000 0.000000
										CHANNELS 3 Xrotation Yrotation Zrotation
										JOINT newVegas:RightHandRing3
										{
											OFFSET -3.178268 0.000000 0.000000
											CHANNELS 3 Xrotation Yrotation Zrotation
											End Site
											{
												OFFSET -0.119102 3.170624 0.185394
											}
										}
									}
								}
								JOINT newVegas:RightHandPinky1
								{
									OFFSET -15.989624 -0.606689 -7.535461
									CHANNELS 3 Xrotation Yrotation Zrotation
									JOINT newVegas:RightHandPinky2
									{
										OFFSET -2.538986 0.000000 0.000000
										CHANNELS 3 Xrotation Yrotation Zrotation
										JOINT newVegas:RightHandPinky3
										{
											OFFSET -2.593102 0.000000 0.000000
											CHANNELS 3 Xrotation Yrotation Zrotation
											End Site
											{
												OFFSET 0.150902 2.584198 0.152708
											}
										}
									}
								}
							}
							JOINT newVegas:Right_CapeC
							{
								OFFSET -15.715958 -8.608795 -6.935905
								CHANNELS 3 Xrotation Yrotation Zrotation
								JOINT newVegas:Right_CapeC1
								{
									OFFSET 0.000000 -8.688499 0.000000
									CHANNELS 3 Xrotation Yrotation Zrotation
									End Site
									{
										OFFSET 0.000000 8.688499 0.000000
									}
								}
							}
							JOINT newVegas:Right_Sleeve
							{
								OFFSET -0.267448 -0.649994 0.577675
								CHANNELS 3 Xrotation Yrotation Zrotation
								End Site
								{
									OFFSET 0.000000 15.991302 0.000000
								}
							}
						}
						JOINT newVegas:Right_CapeA
						{
							OFFSET -5.115540 -8.608795 -10.395824
							CHANNELS 3 Xrotation Yrotation Zrotation
							JOINT newVegas:Right_CapeA1
							{
								OFFSET 0.000000 -8.688499 0.000000
								CHANNELS 3 Xrotation Yrotation Zrotation
								End Site
								{
									OFFSET 0.000000 8.688499 0.000000
								}
							}
						}
						JOINT newVegas:Right_CapeB
						{
							OFFSET -26.118187 -8.608795 -7.079266
							CHANNELS 3 Xrotation Yrotation Zrotation
							JOINT newVegas:Right_CapeB1
							{
								OFFSET 0.000000 -8.688499 0.000000
								CHANNELS 3 Xrotation Yrotation Zrotation
								End Site
								{
									OFFSET 0.000000 8.688499 0.000000
								}
							}
						}
					}
				}
				JOINT newVegas:Left_Collar
				{
					OFFSET 18.625099 8.655502 8.828100
					CHANNELS 3 Xrotation Yrotation Zrotation
					JOINT newVegas:Left_Collar1
					{
						OFFSET 14.783401 10.540405 -1.259500
						CHANNELS 3 Xrotation Yrotation Zrotation
						End Site
						{
							OFFSET 0.000000 18.199875 0.000000
						}
					}
				}
				JOINT newVegas:Collar_Back
				{
					OFFSET 0.000000 15.630707 -20.132601
					CHANNELS 3 Xrotation Yrotation Zrotation
					End Site
					{
						OFFSET 0.000000 22.523010 0.000000
					}
				}
				JOINT newVegas:Left_Peck
				{
					OFFSET 17.239599 -5.132599 25.482599
					CHANNELS 3 Xrotation Yrotation Zrotation
					End Site
					{
						OFFSET 0.000000 22.523010 0.000000
					}
				}
				JOINT newVegas:Right_Peck
				{
					OFFSET -17.239599 -5.132202 25.482599
					CHANNELS 3 Xrotation Yrotation Zrotation
					End Site
					{
						OFFSET 0.000000 22.523010 0.000000
					}
				}
				JOINT newVegas:Right_Collar
				{
					OFFSET -18.625099 8.655792 8.828100
					CHANNELS 3 Xrotation Yrotation Zrotation
					JOINT newVegas:Right_Collar1
					{
						OFFSET -14.783401 10.539993 -1.259500
						CHANNELS 3 Xrotation Yrotation Zrotation
						End Site
						{
							OFFSET 0.000000 18.199631 0.000000
						}
					}
				}
			}
		}
		JOINT newVegas:Belly
		{
			OFFSET 0.000000 -6.540398 9.014299
			CHANNELS 3 Xrotation Yrotation Zrotation
			End Site
			{
				OFFSET 0.000000 11.566666 0.000000
			}
		}
	}
	JOINT newVegas:ElvisFacialAnim_Joint
	{
		OFFSET 1.000000 -95.330101 -8.825800
		CHANNELS 3 Xrotation Yrotation Zrotation
		End Site
		{
			OFFSET 0.000000 35.315800 0.000000
		}
	}
}
MOTION
Frames: 4
Frame Time: 0.033333
-0.790188 90.716751 56.363316 19.793297 -8.940062 2.243362 0.000002 -0.000000 -0.000000 -12.447770 16.495670 8.719427 23.890943 -5.524161 -3.354247 6.794107 -4.728344 -1.518019 0.000000 -0.000000 -0.000000 0.000000 0.000000 0.000001 -48.310649 3.142967 1.514305 21.171056 16.106442 0.521231 7.461203 -0.904296 3.731869 0.000000 -0.000000 -0.000000 0.000001 0.000001 -0.000000 9.206474 -1.702270 0.642774 0.060879 -4.962854 7.256711 0.146716 -3.496597 7.876213 -4.697321 3.413962 -0.903299 -4.697326 3.413961 -0.903308 0.000002 0.000000 -0.000000 -4.697329 3.413948 -0.903299 -4.697320 3.413974 -0.903304 0.000000 0.000000 0.000000 0.000002 0.000000 -0.000000 10.222449 -16.973310 34.473225 -63.008673 3.266072 -31.526982 -17.681403 -11.910231 -2.612046 -55.576621 31.322182 6.438865 17.551954 -5.698124 -12.932431 10.836869 26.090885 8.643099 0.000003 0.000003 -0.000004 16.232148 4.797393 -62.137632 0.486562 1.122799 -71.330329 -0.000003 -0.000001 0.000000 8.945730 4.872220 -68.361383 1.893266 1.375240 -67.864090 -0.000005 0.000002 -0.000004 8.650508 1.851150 -77.321901 -0.181204 1.016619 -59.455670 0.000001 -0.000001 -0.000001 11.855805 14.039552 -86.092711 0.851042 -0.013721 -67.898535 0.000002 -0.000002 0.000000 -0.000000 -0.000001 -0.000001 -0.000000 -0.000001 -0.000001 -0.000001 -0.000000 -0.000001 0.000001 -0.000002 0.000000 0.000001 -0.000002 0.000000 0.000001 -0.000002 0.000000 0.000001 -0.000002 -0.000000 4.842905 7.801936 5.575971 16.116146 1.632961 57.397290 10.648904 15.341858 -6.529637 3.175458 -6.744530 -2.840343 15.788534 -2.734478 -17.205853 -2.198356 -31.113561 7.361247 0.000001 0.000001 -0.000000 2.357973 -3.635219 20.530370 -2.124564 -2.462583 30.717078 0.000003 -0.000003 -0.000000 -1.959174 -5.679131 25.705391 0.290113 -5.082795 39.030662 -0.000002 0.000001 -0.000000 -3.244798 -8.514670 23.810967 4.016043 -4.038115 45.305188 0.000005 0.000003 -0.000006 -6.434991 -11.281803 35.304940 10.659085 -2.548090 46.869738 0.000000 0.000002 -0.000001 -0.000000 0.000001 -0.000000 -0.000000 -0.000002 -0.000001 -0.000000 0.000001 -0.000000 0.000000 0.000000 -0.000000 0.000000 0.000001 -0.000000 0.000000 0.000000 -0.000000 0.000000 0.000001 -0.000000 -0.000000 0.000001 -0.000002 -0.000000 0.000001 -0.000002 -0.000000 0.000001 -0.000002 -0.000000 0.000001 -0.000002 -0.000000 0.000001 -0.000002 -0.000000 0.000001 -0.000002 -0.000000 0.000001 -0.000002 -0.000001 0.000001 -0.000001 0.000002 -0.000000 -0.000000 
-0.682386 90.758690 56.333664 19.643049 -8.821379 2.236445 0.000001 -0.000000 0.000000 -11.821120 16.450079 8.292365 23.456533 -5.754737 -3.165319 6.118705 -4.705756 -1.332807 0.000001 0.000000 0.000000 0.000003 0.000001 0.000001 -48.124092 3.207887 1.348744 21.103522 16.020501 0.517732 7.461137 -0.907701 3.846258 -0.000000 -0.000001 -0.000000 -0.000001 0.000000 -0.000000 9.175493 -1.758002 0.613462 0.081376 -4.999015 7.211019 0.169395 -3.535935 7.836201 -4.701940 3.405812 -0.882784 -4.701940 3.405809 -0.882782 0.000000 -0.000001 0.000000 -4.701935 3.405833 -0.882795 -4.701943 3.405802 -0.882783 0.000001 0.000001 0.000001 0.000000 -0.000001 -0.000000 10.124418 -16.953119 34.284401 -63.002874 3.150464 -31.721191 -17.762629 -11.994271 -2.692496 -55.611369 31.276867 6.553584 17.550067 -5.703755 -12.931855 10.844672 26.112004 8.644071 0.000002 0.000002 -0.000001 16.227992 4.942975 -62.068545 0.484409 1.121821 -71.217727 0.000001 -0.000004 0.000002 8.959706 5.052681 -68.273444 1.889547 1.377864 -67.722289 -0.000005 -0.000002 -0.000004 8.645833 1.874152 -77.170066 -0.183344 1.015222 -59.294361 -0.000001 0.000001 0.000003 11.852045 14.040439 -86.088155 0.854794 -0.010049 -67.893173 -0.000000 0.000000 -0.000004 -0.000001 -0.000000 0.000000 -0.000001 -0.000000 0.000000 -0.000002 -0.000000 0.000000 0.000000 0.000002 0.000000 -0.000000 0.000002 0.000001 0.000000 0.000002 0.000000 0.000000 0.000002 0.000001 4.842901 7.801830 5.575965 14.468318 1.845425 56.800813 10.711971 14.788333 -6.344941 2.861348 -6.608630 -3.517300 15.788536 -2.734469 -17.205853 -2.198360 -31.113557 7.361242 0.000002 -0.000000 -0.000000 2.355794 -3.630914 19.640417 -2.122407 -2.459790 29.827214 0.000000 -0.000002 -0.000001 -1.957136 -5.672825 24.815355 0.289676 -5.079400 38.140453 0.000000 0.000002 0.000002 -3.242395 -8.505238 22.920675 4.013036 -4.033366 44.415149 0.000000 0.000004 0.000002 -6.428268 -11.270419 34.414939 10.647271 -2.544820 45.980328 -0.000001 -0.000002 0.000001 0.000000 0.000000 -0.000000 0.000000 -0.000000 -0.000001 0.000000 -0.000000 -0.000000 0.000000 -0.000003 0.000000 0.000000 -0.000002 0.000000 0.000000 -0.000003 0.000000 0.000000 -0.000002 0.000000 -0.000000 0.000000 -0.000001 -0.000000 0.000000 -0.000001 -0.000000 0.000000 -0.000001 -0.000000 0.000000 -0.000001 -0.000000 0.000000 -0.000001 -0.000000 0.000000 -0.000001 -0.000000 0.000000 -0.000001 -0.000000 0.000000 -0.000000 0.000001 -0.000000 0.000000 
-0.561559 90.798569 56.254753 19.446249 -8.674214 2.142475 0.000001 0.000001 -0.000000 -11.070200 16.552497 7.909092 23.021311 -6.230253 -2.880437 4.979931 -4.701257 -1.142339 -0.000001 -0.000000 0.000000 0.000000 0.000001 -0.000000 -47.850967 3.248206 1.220917 20.893861 15.883900 0.515894 7.560266 -0.910130 4.008444 -0.000000 0.000000 -0.000000 0.000001 -0.000001 -0.000000 9.099469 -1.803665 0.570861 0.128723 -5.016150 7.172640 0.217776 -3.560047 7.798950 -4.699377 3.382686 -0.873327 -4.699384 3.382689 -0.873330 -0.000000 0.000000 -0.000000 -4.699375 3.382705 -0.873329 -4.699314 3.382694 -0.873335 -0.000000 -0.000000 0.000000 -0.000000 0.000000 0.000000 10.000340 -16.938516 33.906200 -62.974932 2.966696 -32.019968 -17.805205 -12.255862 -2.827053 -55.626799 31.169203 6.661973 17.548247 -5.709075 -12.931327 10.845977 26.115508 8.644224 -0.000000 -0.000000 -0.000001 16.181070 5.025654 -61.878372 0.480844 1.122742 -71.008054 -0.000001 -0.000000 -0.000001 8.925855 5.178707 -68.070792 1.883204 1.382295 -67.480220 0.000003 0.000001 -0.000004 8.638501 1.916567 -76.890117 -0.187162 1.012940 -59.009317 -0.000004 -0.000001 0.000004 11.847631 14.042732 -86.080492 0.858484 -0.006277 -67.875060 0.000001 -0.000006 -0.000005 -0.000002 0.000000 -0.000000 -0.000002 0.000000 -0.000000 -0.000003 0.000000 -0.000000 -0.000001 -0.000002 -0.000001 -0.000001 -0.000002 0.000000 -0.000001 -0.000002 -0.000001 -0.000001 -0.000002 -0.000001 4.842915 7.801735 5.575970 12.732202 2.113090 56.279365 10.777879 14.219616 -6.148221 2.536926 -6.443805 -4.201847 15.788529 -2.734478 -17.205844 -2.198359 -31.113557 7.361248 0.000002 0.000002 -0.000004 2.354722 -3.627188 18.694206 -2.120580 -2.457530 28.881001 0.000002 -0.000000 -0.000002 -1.955310 -5.667647 23.869044 0.289431 -5.076334 37.194003 0.000002 0.000002 0.000001 -3.239877 -8.497632 21.974173 4.010170 -4.029247 43.468738 0.000001 -0.000001 0.000003 -6.422531 -11.262973 33.468443 10.635934 -2.541777 45.034453 0.000001 -0.000002 -0.000001 -0.000001 0.000002 0.000000 0.000000 -0.000002 -0.000001 -0.000001 0.000002 -0.000000 0.000000 0.000000 -0.000000 0.000000 0.000001 -0.000000 0.000000 0.000000 -0.000000 0.000000 0.000001 0.000000 -0.000000 0.000000 -0.000000 -0.000000 0.000000 -0.000000 -0.000000 0.000000 -0.000000 -0.000000 0.000000 -0.000000 -0.000000 0.000000 -0.000000 -0.000000 0.000000 -0.000000 -0.000000 0.000000 -0.000000 0.000002 -0.000002 0.000000 0.000001 0.000001 -0.000000 
-0.415585 90.821945 56.099667 19.182841 -8.485288 1.940684 0.000001 -0.000001 0.000000 -10.447240 16.633666 7.701218 22.907450 -6.731700 -2.577531 3.550624 -4.694141 -1.051197 0.000003 0.000000 -0.000000 0.000000 0.000000 0.000000 -47.504731 3.262966 1.136404 20.573614 15.674422 0.512271 7.753032 -0.910417 4.219141 -0.000000 -0.000001 -0.000000 0.000001 0.000001 -0.000000 8.998580 -1.841485 0.528100 0.189679 -5.018676 7.137917 0.279010 -3.572772 7.761148 -4.693712 3.348869 -0.868382 -4.693718 3.348858 -0.868377 0.000001 0.000000 0.000001 -4.693713 3.348857 -0.868377 -4.693710 3.348871 -0.868381 0.000001 -0.000000 -0.000001 0.000001 0.000000 -0.000000 9.772869 -16.944750 33.272816 -62.887532 2.681353 -32.477287 -17.712996 -12.856480 -3.029294 -55.569135 30.947987 6.664887 17.547644 -5.710952 -12.931135 10.843021 26.107537 8.643856 0.000002 -0.000002 -0.000003 16.116262 5.007929 -61.665817 0.477452 1.124094 -70.808298 -0.000002 -0.000002 0.000003 8.861251 5.143914 -67.878249 1.878396 1.386340 -67.296372 -0.000001 -0.000002 -0.000002 8.633922 1.947670 -76.684576 -0.191043 1.009882 -58.811187 -0.000000 -0.000002 -0.000001 11.847948 14.045459 -86.078415 0.862018 -0.002388 -67.840874 -0.000001 -0.000003 0.000002 -0.000002 -0.000001 -0.000000 -0.000002 -0.000001 -0.000000 -0.000003 -0.000000 -0.000000 0.000002 0.000000 0.000000 0.000002 0.000000 0.000001 0.000002 0.000000 0.000000 0.000002 -0.000000 0.000000 4.842914 7.801634 5.575959 10.930345 2.432011 55.850187 10.845266 13.649693 -5.942027 2.208493 -6.244858 -4.884115 15.788532 -2.734470 -17.205848 -2.198364 -31.113561 7.361240 -0.000000 -0.000001 0.000001 2.354322 -3.624308 17.707694 -2.120761 -2.456015 27.894423 0.000001 -0.000000 -0.000002 -1.953838 -5.663983 22.882462 0.289368 -5.073587 36.207328 0.000002 -0.000003 0.000001 -3.237326 -8.492242 20.987527 4.007686 -4.026029 42.482062 0.000001 -0.000001 0.000000 -6.417990 -11.256782 32.481894 10.629248 -2.538999 44.048153 -0.000003 0.000002 -0.000001 0.000001 0.000003 -0.000000 0.000001 0.000003 -0.000000 0.000001 0.000003 -0.000001 -0.000000 0.000001 -0.000001 -0.000000 0.000002 -0.000000 -0.000000 0.000001 -0.000001 -0.000000 0.000002 -0.000000 0.000000 0.000000 -0.000000 0.000000 0.000000 -0.000000 0.000000 0.000000 -0.000000 0.000000 0.000000 -0.000000 0.000000 0.000000 -0.000000 0.000000 0.000000 -0.000000 0.000000 0.000000 -0.000000 0.000002 -0.000000 -0.000000 0.000001 -0.000001 0.000000 
